<?xml version="1.0" encoding="utf-8"?>
<!-- Generator: Adobe Illustrator 25.2.1, SVG Export Plug-In . SVG Version: 6.00 Build 0)  -->
<svg version="1.1" id="Capa_1" xmlns="http://www.w3.org/2000/svg" xmlns:xlink="http://www.w3.org/1999/xlink" x="0px" y="0px"
	 viewBox="0 0 512 512" style="enable-background:new 0 0 512 512;" xml:space="preserve">
<style type="text/css">
	.st0{fill:#E4E7E9;}
	.st1{opacity:0.1;}
	.st2{fill:#3E4B58;}
	.st3{opacity:0.6;}
	.st4{fill:#FFFFFF;}
	.st5{fill:#4FB410;}
</style>
<path class="st0" d="M297.5,121.4V53.5h-83.1v67.9c0,3.1-2,5.8-5,6.8c-47.7,15.7-82.1,60.6-82.1,113.5v254.2
	c0,8.9,7.2,16.1,16.1,16.1h225c8.9,0,16.1-7.2,16.1-16.1V241.7c0-52.9-34.4-97.8-82.1-113.5C299.6,127.2,297.5,124.5,297.5,121.4z"
	/>
<g class="st1">
	<path d="M127.4,478.5v17.4c0,8.9,7.2,16.1,16.1,16.1h225c8.9,0,16.1-7.2,16.1-16.1v-17.4L127.4,478.5L127.4,478.5z"/>
</g>
<path class="st2" d="M306.5,53.5H205.5c-4.8,0-8.6-3.9-8.6-8.6V8.6c0-4.8,3.9-8.6,8.6-8.6h100.9c4.8,0,8.6,3.9,8.6,8.6v36.2
	C315.1,49.6,311.2,53.5,306.5,53.5z"/>
<g class="st1">
	<path d="M306.5,0h-25.2c4.8,0,8.6,3.9,8.6,8.6v36.2c0,4.8-3.9,8.6-8.6,8.6h25.2c4.8,0,8.6-3.9,8.6-8.6V8.6
		C315.1,3.9,311.2,0,306.5,0z"/>
</g>
<g class="st3">
	<circle class="st4" cx="256" cy="198.1" r="32.6"/>
</g>
<g class="st1">
	<path d="M302.5,128.2c-2.9-1-5-3.7-5-6.8V53.5h-83.2v22.4h57.1v56.7c0,3.1,2,5.8,5,6.8c47.7,15.7,82.1,60.6,82.1,113.5v244.4
		c0,6.6-3.9,12.2-9.6,14.7h19.6c8.9,0,16.1-7.2,16.1-16.1V241.7C384.6,188.8,350.2,143.9,302.5,128.2z"/>
</g>
<g>
	<path class="st5" d="M330.7,292.8H181.3c-6.9,0-12.6-5.6-12.6-12.6V263c0-6.9,5.6-12.6,12.6-12.6h149.3c6.9,0,12.6,5.6,12.6,12.6
		v17.3C343.2,287.2,337.6,292.8,330.7,292.8z"/>
	<path class="st5" d="M305.7,365.6h-99.3c-4.9,0-8.9-4-8.9-8.9v-13.7c0-4.9,4-8.9,8.9-8.9h99.3c4.9,0,8.9,4,8.9,8.9v13.7
		C314.5,361.7,310.5,365.6,305.7,365.6z"/>
</g>
<g>
	<path class="st2" d="M313.7,321H198.3c-4.1,0-7.5-3.4-7.5-7.5s3.4-7.5,7.5-7.5h115.4c4.1,0,7.5,3.4,7.5,7.5S317.9,321,313.7,321z"
		/>
	<path class="st2" d="M273.7,486h-35.3c-4.1,0-7.5-3.4-7.5-7.5s3.4-7.5,7.5-7.5h35.3c4.1,0,7.5,3.4,7.5,7.5S277.8,486,273.7,486z"/>
</g>
</svg>
